Genre:Adventure | Drama | Family
Language:English
IMDb:http://www.imdb.com/title/tt0970179/
Source:BluRay.X264-AMIABLE Thanks!
Encoder:Tony

Format : AVI
Format/Info : Audio Video Interleave
File size : 1.71 GiB
Duration : 2h 6mn
Overall bit rate : 1 942 Kbps

Video
ID : 0
Format : MPEG-4 Visual
Format profile : Advanced Simple@L5
Format settings, BVOP : 1
Format settings, QPel : No
Format settings, GMC : No warppoints
Format settings, Matrix : Default (H.263)
Codec ID : XVID
Codec ID/Hint : XviD
Duration : 2h 6mn
Bit rate : 1 484 Kbps
Width : 640 pixels
Height : 360 pixels
Display aspect ratio : 16:9
Frame rate : 23.976 fps
Color space : YUV
Chroma subsampling : 4:2:0
Bit depth : 8 bits
Scan type : Progressive
Compression mode : Lossy
Bits/(Pixel*Frame) : 0.269
Stream size : 1.31 GiB (76%)
Writing library : XviD 1.2.1 (UTC 2008-12-04)

Audio
ID : 1
Format : AC-3
Format/Info : Audio Coding 3
Mode extension : CM (complete main)
Codec ID : 2000
Duration : 2h 6mn
Bit rate mode : Constant
Bit rate : 448 Kbps
Channel(s) : 6 channels
Channel positions : Front: L C R, Side: L R, LFE
Sampling rate : 48.0 KHz
Bit depth : 16 bits
Compression mode : Lossy
Stream size : 405 MiB (23%)
Alignment : Aligned on interleaves
Interleave, duration : 42 ms (1.00 video frame)
Interleave, preload duration : 512 ms



Plot:
Set in 1930s Paris, an orphan who lives in the walls of a train station is wrapped up in a mystery involving his late father and an automaton

[img]http://img802.imageshack.us/img802/9748/vlcsnap2012021808h18m43.png[/img]

[img]http://img820.imageshack.us/img820/2199/vlcsnap2012021808h16m58.png[/img]

[img]http://img842.imageshack.us/img842/8241/vlcsnap2012021808h15m45.png[/img]